{"title":"Ghanchakkar 2013 Hindi Movies HDScam New Source Sample Included ","uid":8626613,"size":751377712,"categoryP":"video","categoryS":"movies","magnet":"?xt=urn:btih:89bf8756c2594698c423dd298567769a36c7331e&amp;dn=Ghanchakkar+2013+Hindi+Movies+HDScam+New+Source+Sample+Included+&amp;tr=udp%3A%2F%2Ftracker.openbittorrent.com%3A80&amp;tr=udp%3A%2F%2Fopen.demonii.com%3A1337&amp;tr=udp%3A%2F%2Ftracker.coppersurfer.tk%3A6969&amp;tr=udp%3A%2F%2Fexodus.desync.com%3A6969","seeders":1,"leechers":0,"uploader":"basicssom","files":2,"time":1372522813,"description":"Ghanchakkar 2013 Hindi Movies HDScam New Source Sample Included ~ â˜»rDXâ˜»\n\nScreen Shots :\n &lt;a href=&quot;\nhttp://myimghosting.serveftp.com/13/Ghanchakkar.html&quot; rel=&quot;nofollow&quot; target=&quot;_NEW&quot;&gt;\nhttp://myimghosting.serveftp.com/13/Ghanchakkar.html&lt;/a&gt;\n &lt;a href=&quot;\nhttp://myimghost.cwahi.net/Ghanchakkar.html&quot; rel=&quot;nofollow&quot; target=&quot;_NEW&quot;&gt;\nhttp://myimghost.cwahi.net/Ghanchakkar.html&lt;/a&gt;\n &lt;a href=&quot;\nhttp://users2.jabry.com/myimghost/Ghanchakkar.jpg&quot; rel=&quot;nofollow&quot; target=&quot;_NEW&quot;&gt;\nhttp://users2.jabry.com/myimghost/Ghanchakkar.jpg&lt;/a&gt;\n\nFormat                                   : AVI\nFormat/Info                              : Audio Video Interleave\nFile size                                : 700 MiB\nDuration                                 : 2h 4mn\nOverall bit rate                         : 786 Kbps\n\nVideo\nID                                       : 0\nFormat                                   : MPEG-4 Visual\nFormat profile                           : Advanced Simple@L5\nFormat settings, BVOP                    : 1\nFormat settings, QPel                    : No\nFormat settings, GMC                     : No warppoints\nFormat settings, Matrix                  : Default (H.263)\nCodec ID                                 : XVID\nCodec ID/Hint                            : XviD\nDuration                                 : 2h 4mn\nBit rate                                 : 700 Kbps\nWidth                                    : 640 pixels\nHeight                                   : 256 pixels\nDisplay aspect ratio                     : 2.500\nFrame rate                               : 25.000 fps\nColor space                              : YUV\nChroma subsampling                       : 4:2:0\nBit depth                                : 8 bits\nScan type                                : Progressive\nCompression mode                         : Lossy\nBits/(Pixel*Frame)                       : 0.171\nStream size                              : 623 MiB (89%)\nWriting library                          : XviD 1.2.1 (UTC 2008-12-04)\n\nAudio\nID                                       : 1\nFormat                                   : MPEG Audio\nFormat version                           : Version 1\nFormat profile                           : Layer 3\nMode                                     : Joint stereo\nMode extension                           : MS Stereo\nCodec ID                                 : 55\nCodec ID/Hint                            : MP3\nDuration                                 : 2h 4mn\nBit rate mode                            : Constant\nBit rate                                 : 80.0 Kbps\nChannel(s)                               : 2 channels\nSampling rate                            : 32.0 KHz\nCompression mode                         : Lossy\nStream size                              : 71.3 MiB (10%)\nAlignment                                : Aligned on interleaves\nInterleave, duration                     : 160 ms (4.00 video frames)\nInterleave, preload duration             : 216 ms\nTitle                                    : IcTv\nWriting library                          : LAME3.99r\nEncoding settings                        : -m j -V 4 -q 2 -lowpass 13.5 -b 80","torrent":{"xt":"urn:btih:89bf8756c2594698c423dd298567769a36c7331e","amp;dn":"Ghanchakkar+2013+Hindi+Movies+HDScam+New+Source+Sample+Included+","amp;tr":["udp%3A%2F%2Ftracker.openbittorrent.com%3A80","udp%3A%2F%2Fopen.demonii.com%3A1337","udp%3A%2F%2Ftracker.coppersurfer.tk%3A6969","udp%3A%2F%2Fexodus.desync.com%3A6969"],"infoHash":"89bf8756c2594698c423dd298567769a36c7331e","infoHashBuffer":{"type":"Buffer","data":[137,191,135,86,194,89,70,152,196,35,221,41,133,103,118,154,54,199,51,30]},"announce":[],"urlList":[]}}